<svg xmlns="http://www.w3.org/2000/svg" width="1200" height="360" viewBox="0 0 1200 360" role="img" aria-labelledby="title desc">
  <title id="title">Malro</title><desc id="desc">Speech and pronunciation learning prototype banner</desc>
  <defs><linearGradient id="bg" x1="0" y1="0" x2="1" y2="1"><stop offset="0" stop-color="#24143d"/><stop offset=".55" stop-color="#593b8f"/><stop offset="1" stop-color="#8b6ec7"/></linearGradient></defs>
  <rect width="1200" height="360" rx="28" fill="url(#bg)"/>
  <path d="M0 295C250 220 410 385 660 285s355-45 540-130v205H0z" fill="#ffffff" opacity=".05"/>
  <g transform="translate(70 62)" font-family="Segoe UI, Arial, sans-serif">
    <text x="0" y="60" fill="#ffffff" font-size="66" font-weight="800">Malro</text>
    <text x="2" y="110" fill="#e9ddfb" font-size="24">말로 배우는 번역·발음 학습 Android 프로토타입</text>
    <rect x="0" y="150" width="300" height="48" rx="24" fill="#ffd86b"/>
    <text x="28" y="182" fill="#2b1747" font-size="20" font-weight="800">INCOMPLETE PROTOTYPE</text>
  </g>
  <g transform="translate(755 62)">
    <rect x="0" y="0" width="330" height="220" rx="36" fill="#ffffff" opacity=".14"/>
    <path d="M48 56h150a28 28 0 0 1 28 28v35a28 28 0 0 1-28 28h-64l-32 31v-31H48a28 28 0 0 1-28-28V84a28 28 0 0 1 28-28z" fill="#ffffff"/>
    <path d="M248 93h34a28 28 0 0 1 28 28v28a28 28 0 0 1-28 28h-9v25l-25-25h-8" fill="#ffd86b"/>
    <g stroke="#674998" stroke-width="8" stroke-linecap="round">
      <path d="M64 104h20M96 89v30M112 99v10M128 84v40M144 96v16M160 90v28M176 104h18"/>
    </g>
    <path d="M249 132h32" stroke="#4c326f" stroke-width="7" stroke-linecap="round"/>
  </g>
</svg>
